<svg width="151" height="22" viewBox="0 0 151 22" fill="none" xmlns="http://www.w3.org/2000/svg">
<path d="M8.7818 13.944C12.8698 13.944 15.5578 11.172 15.5578 7.224C15.5578 3.22 12.8978 0.532 8.7818 0.532H0.689799V21H4.2738V13.944H8.7818ZM8.0818 3.724C10.4618 3.724 11.8058 4.956 11.8058 7.196C11.8058 9.436 10.4898 10.752 8.0258 10.752H4.2738V3.724H8.0818ZM19.2166 4.396C20.3366 4.396 21.2606 3.472 21.2606 2.324C21.2606 1.176 20.3366 0.28 19.2166 0.28C18.0406 0.28 17.1166 1.176 17.1166 2.324C17.1166 3.472 18.0406 4.396 19.2166 4.396ZM17.5086 21H20.9246V7.168H17.5086V21ZM26.3019 21L29.2139 16.436L32.1539 21H36.0739L31.5099 14.168L36.2139 7.168H32.3779L29.4379 11.872L26.3859 7.168H22.4099L27.1699 14.224L22.4099 21H26.3019ZM43.2485 21.364C46.8605 21.364 49.3805 19.544 49.9685 16.52H46.8045C46.4125 17.836 45.1805 18.564 43.3045 18.564C41.0365 18.564 39.7485 17.332 39.4965 14.896L49.9125 14.868V13.832C49.9125 9.52 47.2805 6.748 43.1365 6.748C39.0765 6.748 36.2485 9.744 36.2485 14.084C36.2485 18.368 39.1325 21.364 43.2485 21.364ZM43.1645 9.548C45.2085 9.548 46.5245 10.808 46.5245 12.712H39.5805C39.9165 10.64 41.1485 9.548 43.1645 9.548ZM55.5304 21V0.168H52.1424V21H55.5304ZM62.6418 0.532H59.0578V21H62.6418V16.632L66.0298 12.292L71.0978 21H75.2418L68.3818 9.268L75.1578 0.532H70.9298L62.6418 11.284V0.532ZM78.569 4.396C79.689 4.396 80.613 3.472 80.613 2.324C80.613 1.176 79.689 0.28 78.569 0.28C77.393 0.28 76.469 1.176 76.469 2.324C76.469 3.472 77.393 4.396 78.569 4.396ZM76.861 21H80.277V7.168H76.861V21ZM87.9503 21V10.024H90.6383V7.168H87.9503V2.856H84.5343V7.168H81.8743V10.024H84.5343V21H87.9503ZM91.2532 14.056C91.2532 18.452 93.9972 21.364 98.1972 21.364C101.809 21.364 104.497 19.152 104.917 15.932H101.473C101.109 17.444 99.9052 18.284 98.1972 18.284C96.0132 18.284 94.6692 16.66 94.6692 14.056C94.6692 11.452 96.1252 9.8 98.3092 9.8C99.9332 9.8 101.081 10.612 101.473 12.18H104.889C104.525 8.848 101.949 6.748 98.1692 6.748C94.0812 6.748 91.2532 9.772 91.2532 14.056ZM110.316 21V13.44C110.316 11.368 111.576 9.856 113.732 9.856C115.468 9.856 116.616 10.976 116.616 13.3V21H120.032V12.488C120.032 8.904 118.24 6.748 114.824 6.748C112.836 6.748 111.212 7.616 110.344 8.96V0.168H106.9V21H110.316ZM129.016 21.364C132.628 21.364 135.148 19.544 135.736 16.52H132.572C132.18 17.836 130.948 18.564 129.072 18.564C126.804 18.564 125.516 17.332 125.264 14.896L135.68 14.868V13.832C135.68 9.52 133.048 6.748 128.904 6.748C124.844 6.748 122.016 9.744 122.016 14.084C122.016 18.368 124.9 21.364 129.016 21.364ZM128.932 9.548C130.976 9.548 132.292 10.808 132.292 12.712H125.348C125.684 10.64 126.916 9.548 128.932 9.548ZM141.27 21V13.552C141.27 11.312 142.558 9.856 144.658 9.856C146.422 9.856 147.57 10.976 147.57 13.3V21H150.986V12.488C150.986 8.904 149.194 6.748 145.722 6.748C143.846 6.748 142.166 7.56 141.298 8.96L141.018 7.168H137.854V21H141.27Z" fill="white"/>
</svg>
